<?xml version="1.0" standalone="no"?>
<!DOCTYPE svg PUBLIC "-//W3C//DTD SVG 20010904//EN"
 "http://www.w3.org/TR/2001/REC-SVG-20010904/DTD/svg10.dtd">
<svg version="1.0" xmlns="http://www.w3.org/2000/svg"
 width="700.000000pt" height="700.000000pt" viewBox="0 0 700.000000 700.000000"
 preserveAspectRatio="xMidYMid meet">
<metadata>
Created by potrace 1.14, written by Peter Selinger 2001-2017
</metadata>
<g transform="translate(0.000000,700.000000) scale(0.100000,-0.100000)"
fill="#000000" stroke="none">
<path d="M3390 6433 c-70 -4 -211 -25 -255 -37 -5 -2 -23 -7 -40 -11 -27 -7
-134 -51 -219 -90 -86 -38 -521 -231 -891 -395 -77 -34 -173 -77 -213 -96 -41
-19 -75 -34 -78 -34 -2 0 -28 -11 -59 -25 -128 -58 -164 -74 -235 -104 -172
-74 -302 -145 -381 -210 -354 -284 -323 -690 73 -948 89 -57 112 -68 948 -439
393 -174 742 -329 775 -344 237 -108 350 -144 495 -156 101 -9 162 -9 250 -1
151 15 231 36 355 92 17 7 113 50 215 95 102 45 208 92 235 105 28 12 104 46
170 75 66 28 143 62 170 75 28 13 250 112 495 220 566 251 606 272 729 394
258 255 227 611 -73 838 -105 78 -181 116 -681 338 -269 120 -508 226 -530
236 -157 72 -780 345 -820 360 -46 17 -91 28 -170 44 -16 3 -66 8 -110 11 -44
3 -87 6 -95 7 -8 1 -35 1 -60 0z m225 -458 c54 -12 120 -38 290 -115 22 -10
139 -62 260 -115 121 -54 253 -113 293 -131 41 -19 75 -34 77 -34 2 0 32 -13
67 -29 35 -16 142 -64 238 -106 96 -42 198 -87 225 -100 28 -12 109 -48 180
-80 213 -94 257 -115 304 -148 142 -98 151 -145 43 -233 -30 -25 -91 -62 -136
-83 -127 -61 -237 -111 -243 -111 -3 0 -39 -16 -80 -35 -41 -19 -77 -35 -79
-35 -2 0 -39 -16 -81 -36 -43 -20 -130 -59 -193 -86 -63 -28 -144 -64 -180
-80 -36 -17 -117 -53 -180 -80 -63 -28 -140 -61 -170 -75 -30 -14 -131 -59
-225 -100 -93 -41 -204 -91 -245 -110 -109 -50 -209 -74 -320 -76 -181 -3
-205 5 -555 163 -22 10 -96 43 -165 73 -69 30 -150 66 -180 80 -30 14 -296
132 -590 262 -294 130 -562 251 -595 268 -33 18 -84 55 -114 84 -49 47 -53 55
-48 85 10 52 89 118 220 182 62 31 116 56 119 56 4 0 35 13 70 29 35 16 187
84 338 151 151 67 293 130 315 140 32 15 195 87 440 195 17 7 65 29 108 49 44
20 80 36 82 36 2 0 43 18 90 40 47 22 88 40 90 40 3 0 30 12 62 26 73 34 105
43 173 50 30 4 56 7 58 9 8 7 186 -8 237 -20z"/>
<path d="M805 3999 c-43 -12 -102 -65 -126 -111 -58 -114 7 -393 138 -590 118
-177 242 -275 478 -378 52 -23 82 -36 198 -89 37 -17 70 -31 72 -31 3 0 33
-13 67 -29 35 -16 207 -93 383 -171 176 -78 345 -153 375 -167 30 -14 69 -31
85 -38 17 -7 57 -25 90 -40 250 -114 667 -295 700 -305 140 -40 297 -44 428
-11 70 18 310 119 552 231 11 5 378 169 817 364 438 194 822 371 855 392 71
47 186 159 241 235 132 183 207 429 178 584 -8 39 -19 59 -56 96 -87 87 -205
93 -297 14 -46 -39 -70 -92 -78 -173 -7 -77 -14 -99 -51 -178 -20 -42 -59 -98
-94 -137 -50 -55 -77 -74 -156 -112 -52 -25 -96 -45 -99 -45 -2 0 -48 -20
-101 -45 -53 -25 -97 -45 -99 -45 -2 0 -36 -15 -77 -34 -40 -18 -122 -55 -183
-81 -60 -26 -132 -58 -160 -70 -27 -13 -90 -41 -140 -63 -49 -22 -120 -54
-157 -71 -37 -17 -95 -42 -128 -56 -33 -14 -91 -39 -128 -56 -37 -18 -121 -55
-187 -84 -66 -29 -151 -67 -190 -85 -319 -145 -362 -161 -432 -164 -95 -5
-135 8 -408 134 -27 13 -52 24 -55 25 -3 1 -21 8 -40 17 -19 8 -154 68 -300
133 -146 64 -292 129 -325 144 -33 15 -287 129 -565 252 l-505 224 -66 65
c-101 100 -155 211 -165 339 -6 75 -30 127 -75 165 -61 52 -137 68 -214 45z"/>
<path d="M790 2534 c-86 -37 -132 -112 -132 -218 0 -223 100 -458 266 -621 93
-93 185 -152 331 -216 28 -11 75 -33 105 -46 30 -14 195 -87 365 -163 337
-150 354 -157 435 -193 30 -14 138 -62 240 -107 102 -45 209 -93 238 -106 29
-13 55 -24 57 -24 2 0 47 -20 99 -45 53 -25 98 -45 100 -45 3 0 37 -15 78 -34
302 -138 371 -158 539 -158 147 0 275 43 687 233 35 16 65 29 67 29 2 0 48 20
101 45 53 25 98 45 100 45 2 0 32 13 66 29 35 15 122 54 193 86 72 31 163 73
203 91 41 19 76 34 79 34 2 0 42 18 89 40 47 22 87 40 89 40 3 0 28 11 57 24
49 22 383 172 488 218 250 110 395 234 502 428 92 166 137 413 94 515 -75 178
-327 180 -400 3 -9 -20 -18 -67 -21 -104 -11 -155 -89 -292 -210 -369 -27 -18
-126 -66 -220 -107 -93 -42 -196 -88 -227 -102 -31 -14 -59 -26 -61 -26 -3 0
-45 -18 -94 -41 -48 -22 -101 -47 -118 -54 -309 -136 -504 -223 -563 -250 -40
-19 -75 -35 -78 -35 -3 0 -31 -12 -62 -26 -241 -111 -667 -295 -698 -302 -40
-9 -108 -8 -154 1 -21 4 -500 212 -700 304 -30 14 -172 77 -315 140 -142 63
-284 126 -315 140 -30 14 -95 43 -145 65 -49 22 -114 51 -143 64 -29 13 -54
24 -57 24 -2 0 -36 15 -77 34 -40 18 -127 57 -193 87 -66 29 -137 64 -158 76
-130 81 -211 216 -222 372 -8 115 -48 184 -130 222 -48 22 -127 24 -175 3z"/>
</g>
</svg>
